<svg class="main-svg" xmlns="http://www.w3.org/2000/svg" xmlns:xlink="http://www.w3.org/1999/xlink" width="1180" height="460" style="" viewBox="0 0 1180 460"><rect x="0" y="0" width="1180" height="460" style="fill: rgb(255, 255, 255); fill-opacity: 1;"/><defs id="defs-8fa1e2"><g class="clips"><clipPath id="clip8fa1e2xyplot" class="plotclip"><rect width="316.8" height="290"/></clipPath><clipPath id="clip8fa1e2x2y2plot" class="plotclip"><rect width="316.80000000000007" height="290"/></clipPath><clipPath id="clip8fa1e2x3y3plot" class="plotclip"><rect width="316.8" height="290"/></clipPath><clipPath class="axesclip" id="clip8fa1e2x"><rect x="70" y="0" width="316.8" height="460"/></clipPath><clipPath class="axesclip" id="clip8fa1e2y"><rect x="0" y="110" width="1180" height="290"/></clipPath><clipPath class="axesclip" id="clip8fa1e2xy"><rect x="70" y="110" width="316.8" height="290"/></clipPath><clipPath class="axesclip" id="clip8fa1e2y2"><rect x="0" y="110" width="1180" height="290"/></clipPath><clipPath class="axesclip" id="clip8fa1e2xy2"><rect x="70" y="110" width="316.8" height="290"/></clipPath><clipPath class="axesclip" id="clip8fa1e2y3"><rect x="0" y="110" width="1180" height="290"/></clipPath><clipPath class="axesclip" id="clip8fa1e2xy3"><rect x="70" y="110" width="316.8" height="290"/></clipPath><clipPath class="axesclip" id="clip8fa1e2x2"><rect x="451.6" y="0" width="316.80000000000007" height="460"/></clipPath><clipPath class="axesclip" id="clip8fa1e2x2y"><rect x="451.6" y="110" width="316.80000000000007" height="290"/></clipPath><clipPath class="axesclip" id="clip8fa1e2x2y2"><rect x="451.6" y="110" width="316.80000000000007" height="290"/></clipPath><clipPath class="axesclip" id="clip8fa1e2x2y3"><rect x="451.6" y="110" width="316.80000000000007" height="290"/></clipPath><clipPath class="axesclip" id="clip8fa1e2x3"><rect x="833.2" y="0" width="316.8" height="460"/></clipPath><clipPath class="axesclip" id="clip8fa1e2x3y"><rect x="833.2" y="110" width="316.8" height="290"/></clipPath><clipPath class="axesclip" id="clip8fa1e2x3y2"><rect x="833.2" y="110" width="316.8" height="290"/></clipPath><clipPath class="axesclip" id="clip8fa1e2x3y3"><rect x="833.2" y="110" width="316.8" height="290"/></clipPath></g><g class="gradients"/><g class="patterns"/></defs><g class="bglayer"/><g class="layer-below"><g class="imagelayer"/><g class="shapelayer"/></g><g class="cartesianlayer"><g class="subplot xy"><g class="layer-subplot"><g class="shapelayer"/><g class="imagelayer"/></g><g class="minor-gridlayer"><g class="x"/><g class="y"/></g><g class="gridlayer"><g class="x"><path class="xgrid crisp" transform="translate(183.14,0)" d="M0,110v290" style="stroke: rgb(235, 240, 248); stroke-opacity: 1; stroke-width: 1px;"/><path class="xgrid crisp" transform="translate(296.28999999999996,0)" d="M0,110v290" style="stroke: rgb(235, 240, 248); stroke-opacity: 1; stroke-width: 1px;"/></g><g class="y"><path class="ygrid crisp" transform="translate(0,343.4)" d="M70,0h316.8" style="stroke: rgb(235, 240, 248); stroke-opacity: 1; stroke-width: 1px;"/><path class="ygrid crisp" transform="translate(0,301.31)" d="M70,0h316.8" style="stroke: rgb(235, 240, 248); stroke-opacity: 1; stroke-width: 1px;"/><path class="ygrid crisp" transform="translate(0,259.21000000000004)" d="M70,0h316.8" style="stroke: rgb(235, 240, 248); stroke-opacity: 1; stroke-width: 1px;"/><path class="ygrid crisp" transform="translate(0,217.11)" d="M70,0h316.8" style="stroke: rgb(235, 240, 248); stroke-opacity: 1; stroke-width: 1px;"/><path class="ygrid crisp" transform="translate(0,175.01999999999998)" d="M70,0h316.8" style="stroke: rgb(235, 240, 248); stroke-opacity: 1; stroke-width: 1px;"/><path class="ygrid crisp" transform="translate(0,132.92000000000002)" d="M70,0h316.8" style="stroke: rgb(235, 240, 248); stroke-opacity: 1; stroke-width: 1px;"/></g></g><g class="zerolinelayer"><path class="xzl zl crisp" transform="translate(70,0)" d="M0,110v290" style="stroke: rgb(235, 240, 248); stroke-opacity: 1; stroke-width: 2px;"/><path class="yzl zl crisp" transform="translate(0,385.5)" d="M70,0h316.8" style="stroke: rgb(235, 240, 248); stroke-opacity: 1; stroke-width: 2px;"/></g><g class="layer-between"><g class="shapelayer"/><g class="imagelayer"/></g><path class="xlines-below"/><path class="ylines-below"/><g class="overlines-below"/><g class="xaxislayer-below"/><g class="yaxislayer-below"/><g class="overaxes-below"/><g class="overplot"><g class="xy" transform="translate(70,110)" clip-path="url(#clip8fa1e2xyplot)"><g class="scatterlayer mlayer"><g class="trace scatter tracef5dd46" style="stroke-miterlimit: 2; opacity: 1;"><g class="fills"/><g class="errorbars"/><g class="lines"><path class="js-line" d="M0,275.5L316.8,39.76" style="vector-effect: none; fill: none; stroke: rgb(154, 160, 166); stroke-opacity: 1; stroke-dasharray: 3px, 3px; stroke-width: 1px; opacity: 1;"/></g><g class="points"/><g class="text"/></g><g class="trace scatter traceba9027" style="stroke-miterlimit: 2; opacity: 1;"><g class="fills"/><g class="errorbars"/><g class="lines"><path class="js-line" d="M0,119.74H2.83V119.74H5.66H5.66V119.74H5.66H8.49V119.74H11.31H11.31V119.74H11.31H14.14V119.74H16.97H16.97V119.74H16.97H19.8V119.74H22.63H22.63V119.74H22.63H25.46V119.74H28.29H28.29V119.74H28.29H31.12V119.74H33.94H33.94V119.74H33.94H36.77V119.74H39.6H39.6V119.74H39.6H42.43V119.74H45.26H45.26V119.74H45.26H48.08V119.74H50.91H50.91V119.74H50.91H53.74V119.74H56.57H56.57V119.74H56.57H59.4V119.74H62.23H62.23V119.74H62.23H65.06V119.74H67.89H67.89V119.74H67.89H70.72V119.74H73.54H73.54V119.74H73.54H76.37V119.74H79.2H79.2V119.74H79.2H82.03V119.74H84.86H84.86V119.74H84.86H87.69V119.74H90.51H90.51V119.74H90.51H93.34V119.74H96.17H96.17V119.74H96.17H99V119.74H101.83H101.83V119.74H101.83H104.66V119.74H107.49H107.49V119.74H107.49H110.32V119.74H113.14H113.14V119.74H113.14H115.97V119.74H118.8H118.8V119.74H118.8H121.63V119.74H124.46H124.46V119.74H124.46H127.29V119.74H130.11H130.11V119.74H130.11H132.94V119.74H135.77H135.77V119.74H135.77H138.6V119.74H141.43H141.43V119.74H141.43H144.26V119.74H147.09H147.09V119.74H147.09H149.92V119.74H152.74H152.74V119.74H152.74H155.57V119.74H158.4H158.4V119.74H158.4H161.23V119.74H164.06H164.06V119.74H164.06H166.89V119.74H169.71H169.71V119.74H169.71H172.54V119.74H175.37H175.37V119.74H175.37H178.2V119.74H181.03H181.03V119.74H181.03H183.86V119.74H186.69H186.69V119.74H186.69H189.52V119.74H192.34H192.34V119.74H192.34H195.17V119.74H198H198V119.74H198H200.83V119.74H203.66H203.66V119.74H203.66H206.49V119.74H209.31H209.31V119.74H209.31H212.14V119.74H214.97H214.97V115.53H214.97H217.8V115.53H220.63H220.63V111.32H220.63H223.46V111.32H226.29H226.29V107.11H226.29H229.12V107.11H231.94H231.94V102.9H231.94H234.77V102.9H237.6H237.6V98.69H237.6H240.43V98.69H243.26H243.26V94.48H243.26H246.08V94.48H248.91H248.91V90.27H248.91H251.74V90.27H254.57H254.57V86.06H254.57H257.4V86.06H260.23H260.23V81.85H260.23H263.06V81.85H265.89H265.89V77.65H265.89H268.72V77.65H271.54H271.54V73.44H271.54H274.37V73.44H277.2H277.2V69.23H277.2H280.03V69.23H282.86H282.86V65.02H282.86H285.69V65.02H288.51H288.51V60.81H288.51H291.34V60.81H294.17H294.17V56.6H294.17H297V56.6H299.83H299.83V52.39H299.83H302.66V52.39H305.49H305.49V48.18H305.49H308.32V48.18H311.14H311.14V43.97H311.14H313.97V43.97H316.8H316.8V39.76H316.8" style="vector-effect: none; fill: none; stroke: rgb(255, 127, 14); stroke-opacity: 1; stroke-width: 2.5px; opacity: 1;"/></g><g class="points"/><g class="text"/></g><g class="trace scatter trace2981b4" style="stroke-miterlimit: 2; opacity: 1;"><g class="fills"/><g class="errorbars"/><g class="lines"><path class="js-line" d="M0,107.11H2.83V107.11H5.66H5.66V102.9H5.66H8.49V102.9H11.31H11.31V98.69H11.31H14.14V98.69H16.97H16.97V98.69H16.97H19.8V98.69H22.63H22.63V107.11H22.63H25.46V107.11H28.29H28.29V115.53H28.29H31.12V115.53H33.94H33.94V128.16H33.94H36.77V128.16H39.6H39.6V136.58H39.6H42.43V136.58H45.26H45.26V140.79H45.26H48.08V140.79H50.91H50.91V145H50.91H53.74V145H56.57H56.57V145H56.57H59.4V145H62.23H62.23V149.21H62.23H65.06V149.21H67.89H67.89V149.21H67.89H70.72V149.21H73.54H73.54V149.21H73.54H76.37V149.21H79.2H79.2V145H79.2H82.03V145H84.86H84.86V145H84.86H87.69V145H90.51H90.51V140.79H90.51H93.34V140.79H96.17H96.17V140.79H96.17H99V140.79H101.83H101.83V140.79H101.83H104.66V140.79H107.49H107.49V136.58H107.49H110.32V136.58H113.14H113.14V136.58H113.14H115.97V136.58H118.8H118.8V132.37H118.8H121.63V132.37H124.46H124.46V132.37H124.46H127.29V132.37H130.11H130.11V128.16H130.11H132.94V128.16H135.77H135.77V128.16H135.77H138.6V128.16H141.43H141.43V123.95H141.43H144.26V123.95H147.09H147.09V123.95H147.09H149.92V123.95H152.74H152.74V119.74H152.74H155.57V119.74H158.4H158.4V119.74H158.4H161.23V119.74H164.06H164.06V115.53H164.06H166.89V115.53H169.71H169.71V115.53H169.71H172.54V115.53H175.37H175.37V111.32H175.37H178.2V111.32H181.03H181.03V107.11H181.03H183.86V107.11H186.69H186.69V102.9H186.69H189.52V102.9H192.34H192.34V102.9H192.34H195.17V102.9H198H198V98.69H198H200.83V98.69H203.66H203.66V94.48H203.66H206.49V94.48H209.31H209.31V90.27H209.31H212.14V90.27H214.97H214.97V86.06H214.97H217.8V86.06H220.63H220.63V81.85H220.63H223.46V81.85H226.29H226.29V77.65H226.29H229.12V77.65H231.94H231.94V73.44H231.94H234.77V73.44H237.6H237.6V69.23H237.6H240.43V69.23H243.26H243.26V65.02H243.26H246.08V65.02H248.91H248.91V60.81H248.91H251.74V60.81H254.57H254.57V56.6H254.57H257.4V56.6H260.23H260.23V52.39H260.23H263.06V52.39H265.89H265.89V48.18H265.89H268.72V48.18H271.54H271.54V43.97H271.54H274.37V43.97H277.2H277.2V39.76H277.2H280.03V39.76H282.86H282.86V35.55H282.86H285.69V35.55H288.51H288.51V35.55H288.51H291.34V35.55H294.17H294.17V31.34H294.17H297V31.34H299.83H299.83V27.13H299.83H302.66V27.13H305.49H305.49V22.92H305.49H308.32V22.92H311.14H311.14V18.71H311.14H313.97V18.71H316.8H316.8V14.5H316.8" style="vector-effect: none; fill: none; stroke: rgb(31, 119, 180); stroke-opacity: 1; stroke-width: 2.5px; opacity: 1;"/></g><g class="points"/><g class="text"/></g></g></g></g><path class="xlines-above crisp" d="M0,0" style="fill: none;"/><path class="ylines-above crisp" d="M0,0" style="fill: none;"/><g class="overlines-above"/><g class="xaxislayer-above"><g class="xtick"><text text-anchor="middle" x="0" y="413" transform="translate(70,0)" style="font-family: 'Open Sans', verdana, arial, sans-serif; font-size: 12px; fill: rgb(42, 63, 95); fill-opacity: 1; white-space: pre; opacity: 1;">0</text></g><g class="xtick"><text text-anchor="middle" x="0" y="413" style="font-family: 'Open Sans', verdana, arial, sans-serif; font-size: 12px; fill: rgb(42, 63, 95); fill-opacity: 1; white-space: pre; opacity: 1;" transform="translate(183.14,0)">20</text></g><g class="xtick"><text text-anchor="middle" x="0" y="413" style="font-family: 'Open Sans', verdana, arial, sans-serif; font-size: 12px; fill: rgb(42, 63, 95); fill-opacity: 1; white-space: pre; opacity: 1;" transform="translate(296.28999999999996,0)">40</text></g></g><g class="yaxislayer-above"><g class="ytick"><text text-anchor="end" x="69" y="4.199999999999999" transform="translate(0,385.5)" style="font-family: 'Open Sans', verdana, arial, sans-serif; font-size: 12px; fill: rgb(42, 63, 95); fill-opacity: 1; white-space: pre; opacity: 1;">0</text></g><g class="ytick"><text text-anchor="end" x="69" y="4.199999999999999" style="font-family: 'Open Sans', verdana, arial, sans-serif; font-size: 12px; fill: rgb(42, 63, 95); fill-opacity: 1; white-space: pre; opacity: 1;" transform="translate(0,343.4)">10</text></g><g class="ytick"><text text-anchor="end" x="69" y="4.199999999999999" style="font-family: 'Open Sans', verdana, arial, sans-serif; font-size: 12px; fill: rgb(42, 63, 95); fill-opacity: 1; white-space: pre; opacity: 1;" transform="translate(0,301.31)">20</text></g><g class="ytick"><text text-anchor="end" x="69" y="4.199999999999999" style="font-family: 'Open Sans', verdana, arial, sans-serif; font-size: 12px; fill: rgb(42, 63, 95); fill-opacity: 1; white-space: pre; opacity: 1;" transform="translate(0,259.21000000000004)">30</text></g><g class="ytick"><text text-anchor="end" x="69" y="4.199999999999999" style="font-family: 'Open Sans', verdana, arial, sans-serif; font-size: 12px; fill: rgb(42, 63, 95); fill-opacity: 1; white-space: pre; opacity: 1;" transform="translate(0,217.11)">40</text></g><g class="ytick"><text text-anchor="end" x="69" y="4.199999999999999" style="font-family: 'Open Sans', verdana, arial, sans-serif; font-size: 12px; fill: rgb(42, 63, 95); fill-opacity: 1; white-space: pre; opacity: 1;" transform="translate(0,175.01999999999998)">50</text></g><g class="ytick"><text text-anchor="end" x="69" y="4.199999999999999" style="font-family: 'Open Sans', verdana, arial, sans-serif; font-size: 12px; fill: rgb(42, 63, 95); fill-opacity: 1; white-space: pre; opacity: 1;" transform="translate(0,132.92000000000002)">60</text></g></g><g class="overaxes-above"/></g><g class="subplot x2y2"><g class="layer-subplot"><g class="shapelayer"/><g class="imagelayer"/></g><g class="minor-gridlayer"><g class="x2"/><g class="y2"/></g><g class="gridlayer"><g class="x2"><path class="x2grid crisp" transform="translate(480.40000000000003,0)" d="M0,110v290" style="stroke: rgb(235, 240, 248); stroke-opacity: 1; stroke-width: 1px;"/><path class="x2grid crisp" transform="translate(576.4,0)" d="M0,110v290" style="stroke: rgb(235, 240, 248); stroke-opacity: 1; stroke-width: 1px;"/><path class="x2grid crisp" transform="translate(672.4000000000001,0)" d="M0,110v290" style="stroke: rgb(235, 240, 248); stroke-opacity: 1; stroke-width: 1px;"/></g><g class="y2"><path class="y2grid crisp" transform="translate(0,363.75)" d="M451.6,0h316.80000000000007" style="stroke: rgb(235, 240, 248); stroke-opacity: 1; stroke-width: 1px;"/><path class="y2grid crisp" transform="translate(0,327.5)" d="M451.6,0h316.80000000000007" style="stroke: rgb(235, 240, 248); stroke-opacity: 1; stroke-width: 1px;"/><path class="y2grid crisp" transform="translate(0,291.25)" d="M451.6,0h316.80000000000007" style="stroke: rgb(235, 240, 248); stroke-opacity: 1; stroke-width: 1px;"/><path class="y2grid crisp" transform="translate(0,255)" d="M451.6,0h316.80000000000007" style="stroke: rgb(235, 240, 248); stroke-opacity: 1; stroke-width: 1px;"/><path class="y2grid crisp" transform="translate(0,218.75)" d="M451.6,0h316.80000000000007" style="stroke: rgb(235, 240, 248); stroke-opacity: 1; stroke-width: 1px;"/><path class="y2grid crisp" transform="translate(0,182.5)" d="M451.6,0h316.80000000000007" style="stroke: rgb(235, 240, 248); stroke-opacity: 1; stroke-width: 1px;"/><path class="y2grid crisp" transform="translate(0,146.25)" d="M451.6,0h316.80000000000007" style="stroke: rgb(235, 240, 248); stroke-opacity: 1; stroke-width: 1px;"/></g></g><g class="zerolinelayer"/><g class="layer-between"><g class="shapelayer"/><g class="imagelayer"/></g><path class="xlines-below"/><path class="ylines-below"/><g class="overlines-below"/><g class="xaxislayer-below"/><g class="yaxislayer-below"/><g class="overaxes-below"/><g class="overplot"><g class="x2y2" transform="translate(451.6,110)" clip-path="url(#clip8fa1e2x2y2plot)"><g class="scatterlayer mlayer"><g class="trace scatter trace362299" style="stroke-miterlimit: 2; opacity: 1;"><g class="fills"/><g class="errorbars"/><g class="lines"><path class="js-line" d="M0,275.5L316.8,36.25" style="vector-effect: none; fill: none; stroke: rgb(154, 160, 166); stroke-opacity: 1; stroke-dasharray: 3px, 3px; stroke-width: 1px; opacity: 1;"/></g><g class="points"/><g class="text"/></g><g class="trace scatter tracef62646" style="stroke-miterlimit: 2; opacity: 1;"><g class="fills"/><g class="errorbars"/><g class="lines"><path class="js-line" d="M0,116H4.8V116H9.6H9.6V116H9.6H14.4V116H19.2H19.2V116H19.2H24V116H28.8H28.8V116H28.8H33.6V116H38.4H38.4V116H38.4H43.2V116H48H48V116H48H52.8V116H57.6H57.6V116H57.6H62.4V116H67.2H67.2V116H67.2H72V116H76.8H76.8V116H76.8H81.6V116H86.4H86.4V116H86.4H91.2V116H96H96V116H96H100.8V116H105.6H105.6V116H105.6H110.4V116H115.2H115.2V116H115.2H120V116H124.8H124.8V116H124.8H129.6V116H134.4H134.4V116H134.4H139.2V116H144H144V116H144H148.8V116H153.6H153.6V116H153.6H158.4V116H163.2H163.2V116H163.2H168V116H172.8H172.8V116H172.8H177.6V116H182.4H182.4V116H182.4H187.2V116H192H192V116H192H196.8V116H201.6H201.6V116H201.6H206.4V116H211.2H211.2V116H211.2H216V116H220.8H220.8V108.75H220.8H225.6V108.75H230.4H230.4V101.5H230.4H235.2V101.5H240H240V94.25H240H244.8V94.25H249.6H249.6V87H249.6H254.4V87H259.2H259.2V79.75H259.2H264V79.75H268.8H268.8V72.5H268.8H273.6V72.5H278.4H278.4V65.25H278.4H283.2V65.25H288H288V58H288H292.8V58H297.6H297.6V50.75H297.6H302.4V50.75H307.2H307.2V43.5H307.2H312V43.5H316.8H316.8V36.25H316.8" style="vector-effect: none; fill: none; stroke: rgb(255, 127, 14); stroke-opacity: 1; stroke-width: 2.5px; opacity: 1;"/></g><g class="points"/><g class="text"/></g><g class="trace scatter tracecc059f" style="stroke-miterlimit: 2; opacity: 1;"><g class="fills"/><g class="errorbars"/><g class="lines"><path class="js-line" d="M0,166.75H4.8V166.75H9.6H9.6V159.5H9.6H14.4V159.5H19.2H19.2V152.25H19.2H24V152.25H28.8H28.8V152.25H28.8H33.6V152.25H38.4H38.4V145H38.4H43.2V145H48H48V137.75H48H52.8V137.75H57.6H57.6V130.5H57.6H62.4V130.5H67.2H67.2V123.25H67.2H72V123.25H76.8H76.8V123.25H76.8H81.6V123.25H86.4H86.4V116H86.4H91.2V116H96H96V116H96H100.8V116H105.6H105.6V108.75H105.6H110.4V108.75H115.2H115.2V108.75H115.2H120V108.75H124.8H124.8V101.5H124.8H129.6V101.5H134.4H134.4V101.5H134.4H139.2V101.5H144H144V101.5H144H148.8V101.5H153.6H153.6V94.25H153.6H158.4V94.25H163.2H163.2V94.25H163.2H168V94.25H172.8H172.8V87H172.8H177.6V87H182.4H182.4V87H182.4H187.2V87H192H192V79.75H192H196.8V79.75H201.6H201.6V79.75H201.6H206.4V79.75H211.2H211.2V72.5H211.2H216V72.5H220.8H220.8V65.25H220.8H225.6V65.25H230.4H230.4V65.25H230.4H235.2V65.25H240H240V58H240H244.8V58H249.6H249.6V50.75H249.6H254.4V50.75H259.2H259.2V43.5H259.2H264V43.5H268.8H268.8V43.5H268.8H273.6V43.5H278.4H278.4V36.25H278.4H283.2V36.25H288H288V29H288H292.8V29H297.6H297.6V21.75H297.6H302.4V21.75H307.2H307.2V14.5H307.2H312V14.5H316.8H316.8V14.5H316.8" style="vector-effect: none; fill: none; stroke: rgb(31, 119, 180); stroke-opacity: 1; stroke-width: 2.5px; opacity: 1;"/></g><g class="points"/><g class="text"/></g></g></g></g><path class="xlines-above crisp" d="M0,0" style="fill: none;"/><path class="ylines-above crisp" d="M0,0" style="fill: none;"/><g class="overlines-above"/><g class="xaxislayer-above"><g class="x2tick"><text text-anchor="middle" x="0" y="413" transform="translate(480.40000000000003,0)" style="font-family: 'Open Sans', verdana, arial, sans-serif; font-size: 12px; fill: rgb(42, 63, 95); fill-opacity: 1; white-space: pre; opacity: 1;">40</text></g><g class="x2tick"><text text-anchor="middle" x="0" y="413" style="font-family: 'Open Sans', verdana, arial, sans-serif; font-size: 12px; fill: rgb(42, 63, 95); fill-opacity: 1; white-space: pre; opacity: 1;" transform="translate(576.4,0)">50</text></g><g class="x2tick"><text text-anchor="middle" x="0" y="413" style="font-family: 'Open Sans', verdana, arial, sans-serif; font-size: 12px; fill: rgb(42, 63, 95); fill-opacity: 1; white-space: pre; opacity: 1;" transform="translate(672.4000000000001,0)">60</text></g><g class="x2tick"><text text-anchor="middle" x="0" y="413" style="font-family: 'Open Sans', verdana, arial, sans-serif; font-size: 12px; fill: rgb(42, 63, 95); fill-opacity: 1; white-space: pre; opacity: 1;" transform="translate(768.4000000000001,0)">70</text></g></g><g class="yaxislayer-above"><g class="y2tick"><text text-anchor="end" x="450.6" y="4.199999999999999" transform="translate(0,400)" style="font-family: 'Open Sans', verdana, arial, sans-serif; font-size: 12px; fill: rgb(42, 63, 95); fill-opacity: 1; white-space: pre; opacity: 1;">35</text></g><g class="y2tick"><text text-anchor="end" x="450.6" y="4.199999999999999" style="font-family: 'Open Sans', verdana, arial, sans-serif; font-size: 12px; fill: rgb(42, 63, 95); fill-opacity: 1; white-space: pre; opacity: 1;" transform="translate(0,363.75)">40</text></g><g class="y2tick"><text text-anchor="end" x="450.6" y="4.199999999999999" style="font-family: 'Open Sans', verdana, arial, sans-serif; font-size: 12px; fill: rgb(42, 63, 95); fill-opacity: 1; white-space: pre; opacity: 1;" transform="translate(0,327.5)">45</text></g><g class="y2tick"><text text-anchor="end" x="450.6" y="4.199999999999999" style="font-family: 'Open Sans', verdana, arial, sans-serif; font-size: 12px; fill: rgb(42, 63, 95); fill-opacity: 1; white-space: pre; opacity: 1;" transform="translate(0,291.25)">50</text></g><g class="y2tick"><text text-anchor="end" x="450.6" y="4.199999999999999" style="font-family: 'Open Sans', verdana, arial, sans-serif; font-size: 12px; fill: rgb(42, 63, 95); fill-opacity: 1; white-space: pre; opacity: 1;" transform="translate(0,255)">55</text></g><g class="y2tick"><text text-anchor="end" x="450.6" y="4.199999999999999" style="font-family: 'Open Sans', verdana, arial, sans-serif; font-size: 12px; fill: rgb(42, 63, 95); fill-opacity: 1; white-space: pre; opacity: 1;" transform="translate(0,218.75)">60</text></g><g class="y2tick"><text text-anchor="end" x="450.6" y="4.199999999999999" style="font-family: 'Open Sans', verdana, arial, sans-serif; font-size: 12px; fill: rgb(42, 63, 95); fill-opacity: 1; white-space: pre; opacity: 1;" transform="translate(0,182.5)">65</text></g><g class="y2tick"><text text-anchor="end" x="450.6" y="4.199999999999999" style="font-family: 'Open Sans', verdana, arial, sans-serif; font-size: 12px; fill: rgb(42, 63, 95); fill-opacity: 1; white-space: pre; opacity: 1;" transform="translate(0,146.25)">70</text></g><g class="y2tick"><text text-anchor="end" x="450.6" y="4.199999999999999" style="font-family: 'Open Sans', verdana, arial, sans-serif; font-size: 12px; fill: rgb(42, 63, 95); fill-opacity: 1; white-space: pre; opacity: 1;" transform="translate(0,110)">75</text></g></g><g class="overaxes-above"/></g><g class="subplot x3y3"><g class="layer-subplot"><g class="shapelayer"/><g class="imagelayer"/></g><g class="minor-gridlayer"><g class="x3"/><g class="y3"/></g><g class="gridlayer"><g class="x3"><path class="x3grid crisp" transform="translate(843.76,0)" d="M0,110v290" style="stroke: rgb(235, 240, 248); stroke-opacity: 1; stroke-width: 1px;"/><path class="x3grid crisp" transform="translate(949.36,0)" d="M0,110v290" style="stroke: rgb(235, 240, 248); stroke-opacity: 1; stroke-width: 1px;"/><path class="x3grid crisp" transform="translate(1054.96,0)" d="M0,110v290" style="stroke: rgb(235, 240, 248); stroke-opacity: 1; stroke-width: 1px;"/></g><g class="y3"><path class="y3grid crisp" transform="translate(0,376.8)" d="M833.2,0h316.8" style="stroke: rgb(235, 240, 248); stroke-opacity: 1; stroke-width: 1px;"/><path class="y3grid crisp" transform="translate(0,333.3)" d="M833.2,0h316.8" style="stroke: rgb(235, 240, 248); stroke-opacity: 1; stroke-width: 1px;"/><path class="y3grid crisp" transform="translate(0,289.8)" d="M833.2,0h316.8" style="stroke: rgb(235, 240, 248); stroke-opacity: 1; stroke-width: 1px;"/><path class="y3grid crisp" transform="translate(0,246.3)" d="M833.2,0h316.8" style="stroke: rgb(235, 240, 248); stroke-opacity: 1; stroke-width: 1px;"/><path class="y3grid crisp" transform="translate(0,202.8)" d="M833.2,0h316.8" style="stroke: rgb(235, 240, 248); stroke-opacity: 1; stroke-width: 1px;"/><path class="y3grid crisp" transform="translate(0,159.3)" d="M833.2,0h316.8" style="stroke: rgb(235, 240, 248); stroke-opacity: 1; stroke-width: 1px;"/><path class="y3grid crisp" transform="translate(0,115.8)" d="M833.2,0h316.8" style="stroke: rgb(235, 240, 248); stroke-opacity: 1; stroke-width: 1px;"/></g></g><g class="zerolinelayer"/><g class="layer-between"><g class="shapelayer"/><g class="imagelayer"/></g><path class="xlines-below"/><path class="ylines-below"/><g class="overlines-below"/><g class="xaxislayer-below"/><g class="yaxislayer-below"/><g class="overaxes-below"/><g class="overplot"><g class="x3y3" transform="translate(833.2,110)" clip-path="url(#clip8fa1e2x3y3plot)"><g class="scatterlayer mlayer"><g class="trace scatter trace870e80" style="stroke-miterlimit: 2; opacity: 1;"><g class="fills"/><g class="errorbars"/><g class="lines"><path class="js-line" d="M0,275.5L316.8,14.5" style="vector-effect: none; fill: none; stroke: rgb(154, 160, 166); stroke-opacity: 1; stroke-dasharray: 3px, 3px; stroke-width: 1px; opacity: 1;"/></g><g class="points"/><g class="text"/></g><g class="trace scatter tracee596fc" style="stroke-miterlimit: 2; opacity: 1;"><g class="fills"/><g class="errorbars"/><g class="lines"><path class="js-line" d="M0,101.5H5.28V101.5H10.56H10.56V101.5H10.56H15.84V101.5H21.12H21.12V101.5H21.12H26.4V101.5H31.68H31.68V101.5H31.68H36.96V101.5H42.24H42.24V101.5H42.24H47.52V101.5H52.8H52.8V101.5H52.8H58.08V101.5H63.36H63.36V101.5H63.36H68.64V101.5H73.92H73.92V101.5H73.92H79.2V101.5H84.48H84.48V101.5H84.48H89.76V101.5H95.04H95.04V101.5H95.04H100.32V101.5H105.6H105.6V101.5H105.6H110.88V101.5H116.16H116.16V101.5H116.16H121.44V101.5H126.72H126.72V101.5H126.72H132V101.5H137.28H137.28V101.5H137.28H142.56V101.5H147.84H147.84V101.5H147.84H153.12V101.5H158.4H158.4V101.5H158.4H163.68V101.5H168.96H168.96V101.5H168.96H174.24V101.5H179.52H179.52V101.5H179.52H184.8V101.5H190.08H190.08V101.5H190.08H195.36V101.5H200.64H200.64V101.5H200.64H205.92V101.5H211.2H211.2V101.5H211.2H216.48V101.5H221.76H221.76V92.8H221.76H227.04V92.8H232.32H232.32V84.1H232.32H237.6V84.1H242.88H242.88V75.4H242.88H248.16V75.4H253.44H253.44V66.7H253.44H258.72V66.7H264H264V58H264H269.28V58H274.56H274.56V49.3H274.56H279.84V49.3H285.12H285.12V40.6H285.12H290.4V40.6H295.68H295.68V31.9H295.68H300.96V31.9H306.24H306.24V23.2H306.24H311.52V23.2H316.8H316.8V14.5H316.8" style="vector-effect: none; fill: none; stroke: rgb(255, 127, 14); stroke-opacity: 1; stroke-width: 2.5px; opacity: 1;"/></g><g class="points"/><g class="text"/></g><g class="trace scatter tracec3ac6a" style="stroke-miterlimit: 2; opacity: 1;"><g class="fills"/><g class="errorbars"/><g class="lines"><path class="js-line" d="M0,118.9H5.28V118.9H10.56H10.56V118.9H10.56H15.84V118.9H21.12H21.12V110.2H21.12H26.4V110.2H31.68H31.68V110.2H31.68H36.96V110.2H42.24H42.24V101.5H42.24H47.52V101.5H52.8H52.8V101.5H52.8H58.08V101.5H63.36H63.36V92.8H63.36H68.64V92.8H73.92H73.92V92.8H73.92H79.2V92.8H84.48H84.48V92.8H84.48H89.76V92.8H95.04H95.04V84.1H95.04H100.32V84.1H105.6H105.6V84.1H105.6H110.88V84.1H116.16H116.16V84.1H116.16H121.44V84.1H126.72H126.72V75.4H126.72H132V75.4H137.28H137.28V75.4H137.28H142.56V75.4H147.84H147.84V75.4H147.84H153.12V75.4H158.4H158.4V75.4H158.4H163.68V75.4H168.96H168.96V75.4H168.96H174.24V75.4H179.52H179.52V75.4H179.52H184.8V75.4H190.08H190.08V75.4H190.08H195.36V75.4H200.64H200.64V75.4H200.64H205.92V75.4H211.2H211.2V75.4H211.2H216.48V75.4H221.76H221.76V75.4H221.76H227.04V75.4H232.32H232.32V66.7H232.32H237.6V66.7H242.88H242.88V66.7H242.88H248.16V66.7H253.44H253.44V66.7H253.44H258.72V66.7H264H264V58H264H269.28V58H274.56H274.56V49.3H274.56H279.84V49.3H285.12H285.12V40.6H285.12H290.4V40.6H295.68H295.68V31.9H295.68H300.96V31.9H306.24H306.24V23.2H306.24H311.52V23.2H316.8H316.8V14.5H316.8" style="vector-effect: none; fill: none; stroke: rgb(31, 119, 180); stroke-opacity: 1; stroke-width: 2.5px; opacity: 1;"/></g><g class="points"/><g class="text"/></g></g></g></g><path class="xlines-above crisp" d="M0,0" style="fill: none;"/><path class="ylines-above crisp" d="M0,0" style="fill: none;"/><g class="overlines-above"/><g class="xaxislayer-above"><g class="x3tick"><text text-anchor="middle" x="0" y="413" transform="translate(843.76,0)" style="font-family: 'Open Sans', verdana, arial, sans-serif; font-size: 12px; fill: rgb(42, 63, 95); fill-opacity: 1; white-space: pre; opacity: 1;">60</text></g><g class="x3tick"><text text-anchor="middle" x="0" y="413" style="font-family: 'Open Sans', verdana, arial, sans-serif; font-size: 12px; fill: rgb(42, 63, 95); fill-opacity: 1; white-space: pre; opacity: 1;" transform="translate(949.36,0)">70</text></g><g class="x3tick"><text text-anchor="middle" x="0" y="413" style="font-family: 'Open Sans', verdana, arial, sans-serif; font-size: 12px; fill: rgb(42, 63, 95); fill-opacity: 1; white-space: pre; opacity: 1;" transform="translate(1054.96,0)">80</text></g></g><g class="yaxislayer-above"><g class="y3tick"><text text-anchor="end" x="832.2" y="4.199999999999999" transform="translate(0,376.8)" style="font-family: 'Open Sans', verdana, arial, sans-serif; font-size: 12px; fill: rgb(42, 63, 95); fill-opacity: 1; white-space: pre; opacity: 1;">60</text></g><g class="y3tick"><text text-anchor="end" x="832.2" y="4.199999999999999" style="font-family: 'Open Sans', verdana, arial, sans-serif; font-size: 12px; fill: rgb(42, 63, 95); fill-opacity: 1; white-space: pre; opacity: 1;" transform="translate(0,333.3)">65</text></g><g class="y3tick"><text text-anchor="end" x="832.2" y="4.199999999999999" style="font-family: 'Open Sans', verdana, arial, sans-serif; font-size: 12px; fill: rgb(42, 63, 95); fill-opacity: 1; white-space: pre; opacity: 1;" transform="translate(0,289.8)">70</text></g><g class="y3tick"><text text-anchor="end" x="832.2" y="4.199999999999999" style="font-family: 'Open Sans', verdana, arial, sans-serif; font-size: 12px; fill: rgb(42, 63, 95); fill-opacity: 1; white-space: pre; opacity: 1;" transform="translate(0,246.3)">75</text></g><g class="y3tick"><text text-anchor="end" x="832.2" y="4.199999999999999" style="font-family: 'Open Sans', verdana, arial, sans-serif; font-size: 12px; fill: rgb(42, 63, 95); fill-opacity: 1; white-space: pre; opacity: 1;" transform="translate(0,202.8)">80</text></g><g class="y3tick"><text text-anchor="end" x="832.2" y="4.199999999999999" style="font-family: 'Open Sans', verdana, arial, sans-serif; font-size: 12px; fill: rgb(42, 63, 95); fill-opacity: 1; white-space: pre; opacity: 1;" transform="translate(0,159.3)">85</text></g><g class="y3tick"><text text-anchor="end" x="832.2" y="4.199999999999999" style="font-family: 'Open Sans', verdana, arial, sans-serif; font-size: 12px; fill: rgb(42, 63, 95); fill-opacity: 1; white-space: pre; opacity: 1;" transform="translate(0,115.8)">90</text></g></g><g class="overaxes-above"/></g></g><g class="polarlayer"/><g class="smithlayer"/><g class="ternarylayer"/><g class="geolayer"/><g class="funnelarealayer"/><g class="pielayer"/><g class="iciclelayer"/><g class="treemaplayer"/><g class="sunburstlayer"/><g class="glimages"/><defs id="topdefs-8fa1e2"><g class="clips"/><clipPath id="legend8fa1e2"><rect width="475" height="29" x="0" y="0"/></clipPath></defs><g class="layer-above"><g class="imagelayer"/><g class="shapelayer"><g class="shape-group" data-index="0" clip-path="url(#clip8fa1e2y)"><path data-index="0" fill-rule="evenodd" d="M70,229.74L386.8,229.74" style="opacity: 1; stroke: rgb(255, 127, 14); stroke-opacity: 1; fill: rgb(0, 0, 0); fill-opacity: 0; stroke-dasharray: 9px, 9px; stroke-width: 1px;"/></g><g class="shape-group" data-index="1" clip-path="url(#clip8fa1e2y2)"><path data-index="1" fill-rule="evenodd" d="M451.6,226L768.4000000000001,226" style="opacity: 1; stroke: rgb(255, 127, 14); stroke-opacity: 1; fill: rgb(0, 0, 0); fill-opacity: 0; stroke-dasharray: 9px, 9px; stroke-width: 1px;"/></g><g class="shape-group" data-index="2" clip-path="url(#clip8fa1e2y3)"><path data-index="2" fill-rule="evenodd" d="M833.2,211.5L1150,211.5" style="opacity: 1; stroke: rgb(255, 127, 14); stroke-opacity: 1; fill: rgb(0, 0, 0); fill-opacity: 0; stroke-dasharray: 9px, 9px; stroke-width: 1px;"/></g></g></g><g class="infolayer"><g class="legend" pointer-events="all" transform="translate(70,46.19999999999996)"><rect class="bg" shape-rendering="crispEdges" style="stroke: rgb(68, 68, 68); stroke-opacity: 1; fill: rgb(255, 255, 255); fill-opacity: 1; stroke-width: 0px;" width="475" height="29" x="0" y="0"/><g class="scrollbox" transform="" clip-path="url(#legend8fa1e2)"><g class="groups"><g class="traces" transform="translate(0,14.5)" style="opacity: 1;"><text class="legendtext" text-anchor="start" x="40" y="4.680000000000001" style="font-family: 'Open Sans', verdana, arial, sans-serif; font-size: 12px; fill: rgb(42, 63, 95); fill-opacity: 1; white-space: pre;">order nothing (y = u)</text><g class="layers" style="opacity: 1;"><g class="legendfill"/><g class="legendlines"><path class="js-line" d="M5,0h30" style="fill: none; stroke: rgb(154, 160, 166); stroke-opacity: 1; stroke-dasharray: 3px, 3px; stroke-width: 1px;"/></g><g class="legendsymbols"><g class="legendpoints"/></g></g><rect class="legendtoggle" x="0" y="-9.5" width="150.90625" height="19" style="fill: rgb(0, 0, 0); fill-opacity: 0;"/></g><g class="traces" transform="translate(153.40625,14.5)" style="opacity: 1;"><text class="legendtext" text-anchor="start" x="40" y="4.680000000000001" style="font-family: 'Open Sans', verdana, arial, sans-serif; font-size: 12px; fill: rgb(42, 63, 95); fill-opacity: 1; white-space: pre;">Clark &amp; Scarf: y = max(u, ȳ)</text><g class="layers" style="opacity: 1;"><g class="legendfill"/><g class="legendlines"><path class="js-line" d="M5,0h30" style="fill: none; stroke: rgb(255, 127, 14); stroke-opacity: 1; stroke-width: 2.5px;"/></g><g class="legendsymbols"><g class="legendpoints"/></g></g><rect class="legendtoggle" x="0" y="-9.5" width="189.546875" height="19" style="fill: rgb(0, 0, 0); fill-opacity: 0;"/></g><g class="traces" transform="translate(345.453125,14.5)" style="opacity: 1;"><text class="legendtext" text-anchor="start" x="40" y="4.680000000000001" style="font-family: 'Open Sans', verdana, arial, sans-serif; font-size: 12px; fill: rgb(42, 63, 95); fill-opacity: 1; white-space: pre;">the learned rule</text><g class="layers" style="opacity: 1;"><g class="legendfill"/><g class="legendlines"><path class="js-line" d="M5,0h30" style="fill: none; stroke: rgb(31, 119, 180); stroke-opacity: 1; stroke-width: 2.5px;"/></g><g class="legendsymbols"><g class="legendpoints"/></g></g><rect class="legendtoggle" x="0" y="-9.5" width="126.21875" height="19" style="fill: rgb(0, 0, 0); fill-opacity: 0;"/></g></g></g><rect class="scrollbar" rx="20" ry="3" width="0" height="0" style="fill: rgb(128, 139, 164); fill-opacity: 1;" x="0" y="0"/></g><g class="g-gtitle"><text class="gtitle" x="59" y="55" text-anchor="start" dy="0em" style="opacity: 1; font-family: 'Open Sans', verdana, arial, sans-serif; font-size: 17px; fill: rgb(42, 63, 95); fill-opacity: 1; white-space: pre;">The learned rule as a function — n3_l2_p09, obs=echelon, period 25</text></g><g class="g-xtitle"><text class="xtitle" x="228.4" y="440.3" text-anchor="middle" style="opacity: 1; font-family: 'Open Sans', verdana, arial, sans-serif; font-size: 14px; fill: rgb(42, 63, 95); fill-opacity: 1; white-space: pre;">echelon position before ordering  u</text></g><g class="g-x2title"><text class="x2title" x="610" y="440.3" text-anchor="middle" style="opacity: 1; font-family: 'Open Sans', verdana, arial, sans-serif; font-size: 14px; fill: rgb(42, 63, 95); fill-opacity: 1; white-space: pre;">echelon position before ordering  u</text></g><g class="g-x3title"><text class="x3title" x="991.6" y="440.3" text-anchor="middle" style="opacity: 1; font-family: 'Open Sans', verdana, arial, sans-serif; font-size: 14px; fill: rgb(42, 63, 95); fill-opacity: 1; white-space: pre;">echelon position before ordering  u</text></g><g class="g-ytitle"><text class="ytitle" transform="rotate(-90,36.240625,255)" x="36.240625" y="255" text-anchor="middle" style="opacity: 1; font-family: 'Open Sans', verdana, arial, sans-serif; font-size: 14px; fill: rgb(42, 63, 95); fill-opacity: 1; white-space: pre;">after ordering  y</text></g><g class="g-y2title"/><g class="g-y3title"/><g class="annotation" data-index="0" style="opacity: 1;"><g class="annotation-text-g" transform="rotate(0,228.4,99.5)"><g class="cursor-pointer" transform="translate(157,89)"><rect class="bg" x="0.5" y="0.5" width="141" height="20" style="stroke-width: 1px; stroke: rgb(0, 0, 0); stroke-opacity: 0; fill: rgb(0, 0, 0); fill-opacity: 0;"/><text class="annotation-text" text-anchor="middle" x="71.15625" y="16" style="font-family: 'Open Sans', verdana, arial, sans-serif; font-size: 16px; fill: rgb(42, 63, 95); fill-opacity: 1; white-space: pre;">echelon 1 — ȳ = 37</text></g></g></g><g class="annotation" data-index="1" style="opacity: 1;"><g class="annotation-text-g" transform="rotate(0,610,99.5)"><g class="cursor-pointer" transform="translate(539,89)"><rect class="bg" x="0.5" y="0.5" width="141" height="20" style="stroke-width: 1px; stroke: rgb(0, 0, 0); stroke-opacity: 0; fill: rgb(0, 0, 0); fill-opacity: 0;"/><text class="annotation-text" text-anchor="middle" x="71.15625" y="16" style="font-family: 'Open Sans', verdana, arial, sans-serif; font-size: 16px; fill: rgb(42, 63, 95); fill-opacity: 1; white-space: pre;">echelon 2 — ȳ = 59</text></g></g></g><g class="annotation" data-index="2" style="opacity: 1;"><g class="annotation-text-g" transform="rotate(0,991.5999999999999,99.5)"><g class="cursor-pointer" transform="translate(921,89)"><rect class="bg" x="0.5" y="0.5" width="141" height="20" style="stroke-width: 1px; stroke: rgb(0, 0, 0); stroke-opacity: 0; fill: rgb(0, 0, 0); fill-opacity: 0;"/><text class="annotation-text" text-anchor="middle" x="71.15625" y="16" style="font-family: 'Open Sans', verdana, arial, sans-serif; font-size: 16px; fill: rgb(42, 63, 95); fill-opacity: 1; white-space: pre;">echelon 3 — ȳ = 79</text></g></g></g></g></svg>